# xmcd
# 
# Track frame offsets:
#     150
#     18822
#     39585
#     50535
#     68410
#     89035
#     119322
#     146585
#     177165
#     195485
#     216885
#     266910
#     279923
#     308798
#     332985
# 
# Disc length: 4610
# 
# Revision: 5
# Processed by: cddbd v1.5.2PL0 Copyright (c) Steve Scherf et al.
# Submitted via: BonkEnc v1.0.8
# 
DISCID=da12000f
DTITLE=Various Artist - Blues Corner - The Best Of Blues CD 1
DYEAR=2002
DGENRE=Blues
TTITLE0=Gary Moore - Still got the blues
TTITLE1=Stevie Ray Vaughan and Double Trouble - The Sky Is Crying
TTITLE2=Screaming Jay Hawkins - I put a spell on you
TTITLE3=Big Brother and The Holding Company - Buried alive in the Blues
TTITLE4=The Band - The weight
TTITLE5=The Allmann Brothers Band - Gamblers Roll
TTITLE6=The Charlie Daniels Band - Its my life
TTITLE7=Buddy Guy - Tramp
TTITLE8=Its a Beautiful Day - Wasted union blues
TTITLE9=Buz Scaggs with Booker T. and The MG's - As years go passing by
TTITLE10=Stephen Stills and Al Kooper - Season of the witch
TTITLE11=Howlin Wolf - I ain't superstitious
TTITLE12=Jimmy Vaughan - Dengue woman blues
TTITLE13=Muddy Waters - Mannish Boy
TTITLE14=Fleetwood Mac - Black magic woman
EXTD=
EXTT0=
EXTT1=
EXTT2=
EXTT3=
EXTT4=
EXTT5=
EXTT6=
EXTT7=
EXTT8=
EXTT9=
EXTT10=
EXTT11=
EXTT12=
EXTT13=
EXTT14=
PLAYORDER=
